<svg width="129" height="39" viewBox="0 0 129 39" fill="none" xmlns="http://www.w3.org/2000/svg">
<path d="M12.0001 10.1667H9.33341C8.62617 10.1667 7.94789 10.4476 7.4478 10.9477C6.9477 11.4478 6.66675 12.1261 6.66675 12.8333V28.8333C6.66675 29.5406 6.9477 30.2189 7.4478 30.719C7.94789 31.2191 8.62617 31.5 9.33341 31.5H22.6667C23.374 31.5 24.0523 31.2191 24.5524 30.719C25.0525 30.2189 25.3334 29.5406 25.3334 28.8333V12.8333C25.3334 12.1261 25.0525 11.4478 24.5524 10.9477C24.0523 10.4476 23.374 10.1667 22.6667 10.1667H20.0001" stroke="#FAFAFA" stroke-width="2.66667" stroke-linecap="round" stroke-linejoin="round"/>
<path d="M12 22.1667H12.0133M12 26.1667H12.0133M16 24.8333L17.3333 26.1667L21.3333 22.1667M12 10.1667C12 9.45942 12.281 8.78115 12.781 8.28105C13.2811 7.78095 13.9594 7.5 14.6667 7.5H17.3333C18.0406 7.5 18.7189 7.78095 19.219 8.28105C19.719 8.78115 20 9.45942 20 10.1667C20 10.8739 19.719 11.5522 19.219 12.0523C18.7189 12.5524 18.0406 12.8333 17.3333 12.8333H14.6667C13.9594 12.8333 13.2811 12.5524 12.781 12.0523C12.281 11.5522 12 10.8739 12 10.1667Z" stroke="#FAFAFA" stroke-width="2.66667" stroke-linecap="round" stroke-linejoin="round"/>
<path d="M41 12.2955V7.72727H60.6705V12.2955H53.6136V31H48.0682V12.2955H41ZM69.0341 31.3295C67.2008 31.3295 65.625 30.9545 64.3068 30.2045C62.9962 29.447 61.9848 28.3939 61.2727 27.0455C60.5682 25.6894 60.2159 24.1174 60.2159 22.3295C60.2159 20.5341 60.5682 18.9621 61.2727 17.6136C61.9848 16.2576 62.9962 15.2045 64.3068 14.4545C65.625 13.697 67.2008 13.3182 69.0341 13.3182C70.8674 13.3182 72.4394 13.697 73.75 14.4545C75.0682 15.2045 76.0795 16.2576 76.7841 17.6136C77.4962 18.9621 77.8523 20.5341 77.8523 22.3295C77.8523 24.1174 77.4962 25.6894 76.7841 27.0455C76.0795 28.3939 75.0682 29.447 73.75 30.2045C72.4394 30.9545 70.8674 31.3295 69.0341 31.3295ZM69.0682 27.1364C69.7348 27.1364 70.2992 26.9318 70.7614 26.5227C71.2235 26.1136 71.5758 25.5455 71.8182 24.8182C72.0682 24.0909 72.1932 23.25 72.1932 22.2955C72.1932 21.3258 72.0682 20.4773 71.8182 19.75C71.5758 19.0227 71.2235 18.4545 70.7614 18.0455C70.2992 17.6364 69.7348 17.4318 69.0682 17.4318C68.3788 17.4318 67.7955 17.6364 67.3182 18.0455C66.8485 18.4545 66.4886 19.0227 66.2386 19.75C65.9962 20.4773 65.875 21.3258 65.875 22.2955C65.875 23.25 65.9962 24.0909 66.2386 24.8182C66.4886 25.5455 66.8485 26.1136 67.3182 26.5227C67.7955 26.9318 68.3788 27.1364 69.0682 27.1364ZM96.1761 31H87.5739V7.72727H96.1648C98.536 7.72727 100.578 8.19318 102.29 9.125C104.009 10.0492 105.335 11.3826 106.267 13.125C107.199 14.8598 107.665 16.9356 107.665 19.3523C107.665 21.7765 107.199 23.8598 106.267 25.6023C105.343 27.3447 104.021 28.6818 102.301 29.6136C100.581 30.5379 98.5398 31 96.1761 31ZM93.1989 26.2045H95.9602C97.2633 26.2045 98.3655 25.9848 99.267 25.5455C100.176 25.0985 100.862 24.375 101.324 23.375C101.794 22.3674 102.028 21.0265 102.028 19.3523C102.028 17.678 101.794 16.3447 101.324 15.3523C100.854 14.3523 100.161 13.6326 99.2443 13.1932C98.3352 12.7462 97.214 12.5227 95.8807 12.5227H93.1989V26.2045ZM119.097 31.3295C117.263 31.3295 115.688 30.9545 114.369 30.2045C113.059 29.447 112.047 28.3939 111.335 27.0455C110.631 25.6894 110.278 24.1174 110.278 22.3295C110.278 20.5341 110.631 18.9621 111.335 17.6136C112.047 16.2576 113.059 15.2045 114.369 14.4545C115.688 13.697 117.263 13.3182 119.097 13.3182C120.93 13.3182 122.502 13.697 123.812 14.4545C125.131 15.2045 126.142 16.2576 126.847 17.6136C127.559 18.9621 127.915 20.5341 127.915 22.3295C127.915 24.1174 127.559 25.6894 126.847 27.0455C126.142 28.3939 125.131 29.447 123.812 30.2045C122.502 30.9545 120.93 31.3295 119.097 31.3295ZM119.131 27.1364C119.797 27.1364 120.362 26.9318 120.824 26.5227C121.286 26.1136 121.638 25.5455 121.881 24.8182C122.131 24.0909 122.256 23.25 122.256 22.2955C122.256 21.3258 122.131 20.4773 121.881 19.75C121.638 19.0227 121.286 18.4545 120.824 18.0455C120.362 17.6364 119.797 17.4318 119.131 17.4318C118.441 17.4318 117.858 17.6364 117.381 18.0455C116.911 18.4545 116.551 19.0227 116.301 19.75C116.059 20.4773 115.938 21.3258 115.938 22.2955C115.938 23.25 116.059 24.0909 116.301 24.8182C116.551 25.5455 116.911 26.1136 117.381 26.5227C117.858 26.9318 118.441 27.1364 119.131 27.1364Z" fill="#FAFAFA"/>
</svg>
